<svg width="24" height="24" viewBox="0 0 24 24" fill="none" xmlns="http://www.w3.org/2000/svg"><g clip-path="url(#clip0)"><path d="M24.001 12.074c0-6.669-5.373-12.075-12-12.075C5.371.001-.002 5.405-.002 12.075c0 6.026 4.39 11.021 10.125 11.927v-8.437H7.078v-3.49h3.048V9.413c0-3.025 1.793-4.696 4.533-4.696 1.314 0 2.687.235 2.687.235v2.97h-1.514c-1.49 0-1.955.932-1.955 1.887v2.265h3.327l-.53 3.489h-2.798V24c5.736-.905 10.125-5.9 10.125-11.926z" fill="#000"/></g><defs><clipPath id="clip0"><path fill="#fff" d="M0 0h24v24H0z"/></clipPath></defs></svg>