<svg width="20" height="20" viewBox="0 0 20 20" fill="none" xmlns="http://www.w3.org/2000/svg"><path d="M19.297 7.76a1.583 1.583 0 00-1.257-1.077l-4.528-.736-2.099-4.079a1.59 1.59 0 00-2.827 0L6.488 5.947l-4.528.736a1.59 1.59 0 00-.874 2.688l3.23 3.257-.698 4.533a1.589 1.589 0 002.287 1.662L10 16.757l4.095 2.066a1.59 1.59 0 002.287-1.662l-.699-4.533 3.23-3.257a1.583 1.583 0 00.384-1.61zm-1.27.731l-3.676 3.704.796 5.157a.34.34 0 01-.489.355L10 15.357l-4.659 2.35a.338.338 0 01-.488-.355l.795-5.157-3.674-3.704a.34.34 0 01.186-.574l5.15-.837 2.388-4.64a.34.34 0 01.604 0l2.387 4.64 5.15.837a.34.34 0 01.187.574z" fill="#fff"/></svg>