<svg width="25" height="25" viewBox="0 0 25 25" fill="none" xmlns="http://www.w3.org/2000/svg"><path d="M16.23 12.48a3.75 3.75 0 01-7.5 0c0-.214.022-.423.061-.625H7.48v4.996c0 .348.281.629.629.629h8.743a.629.629 0 00.628-.629v-4.996h-1.311c.038.202.061.411.061.625zm-3.75 2.5a2.502 2.502 0 00.956-4.811 2.5 2.5 0 10-.956 4.811zm3-5.125h1.499a.376.376 0 00.376-.375V7.981a.377.377 0 00-.376-.376H15.48a.376.376 0 00-.376.376V9.48c.001.206.17.375.376.375zm-3-9.375a12 12 0 100 24 12 12 0 000-24zm6.25 16.861c0 .764-.625 1.389-1.389 1.389H7.62a1.393 1.393 0 01-1.389-1.389V7.62c0-.764.625-1.389 1.389-1.389h9.722c.764 0 1.389.625 1.389 1.389v9.722z" fill="#000"/></svg>