<svg width="82" height="25" viewBox="0 0 82 25" fill="none" xmlns="http://www.w3.org/2000/svg"><circle cx="11" cy="11" r="11" fill="url(#paint0_radial)"/><g filter="url(#filter0_d)"><path d="M20.915 8.527c-.287-.844-1.217-1.3-2.078-1.019L14.27 9 6.104 6 4.062 7l6.125 4-4.083 2-4.083-2L1 12l4.083 4 14.85-5.455a1.602 1.602 0 00.982-2.018z" fill="#fff"/></g><path d="M33.926 19h-5.792V6.15h5.792v2.066h-3.402v3.058h3.156v2.075h-3.156v3.56h3.402V19zm3.419-5.001L34.9 9.209h2.426l1.3 2.988 1.205-2.988h2.408l-2.46 4.79L42.345 19h-2.444l-1.388-3.129L37.222 19h-2.435l2.558-5.001zm10.503 5.177c-.422 0-.797-.094-1.125-.281-.323-.194-.624-.53-.906-1.011h-.123c.094.797.141 1.277.141 1.441v4H43.48V9.208h1.81l.404 1.274h.106c.486-.972 1.192-1.459 2.118-1.459.89 0 1.588.443 2.092 1.328.504.878.756 2.124.756 3.735 0 1.588-.261 2.833-.783 3.735-.521.903-1.233 1.354-2.135 1.354zm-.721-8.165c-.457 0-.788.214-.993.641-.2.422-.305 1.125-.317 2.11v.307c0 1.079.103 1.864.308 2.356.205.492.545.738 1.02.738.82 0 1.23-1.037 1.23-3.111 0-1.02-.102-1.781-.308-2.285-.199-.504-.512-.756-.94-.756zm8.895 8.165c-1.225 0-2.192-.434-2.9-1.301-.704-.873-1.056-2.106-1.056-3.7 0-1.617.32-2.88.958-3.788.64-.908 1.53-1.363 2.672-1.363 1.067 0 1.907.39 2.523 1.17.615.773.923 1.86.923 3.26v1.248h-4.703c.018.873.197 1.524.537 1.951.34.422.808.633 1.406.633.762 0 1.54-.237 2.338-.712V18.5c-.75.451-1.65.677-2.698.677zm-.343-8.35c-.334 0-.61.179-.827.536-.216.352-.342.9-.377 1.644h2.373c-.012-.715-.12-1.257-.325-1.626-.206-.37-.487-.554-.844-.554zm7.585 8.35c-.903 0-1.615-.445-2.136-1.336-.522-.89-.782-2.13-.782-3.718 0-1.594.255-2.842.764-3.744.51-.902 1.213-1.354 2.11-1.354.445 0 .829.112 1.151.334.328.217.63.586.905 1.108h.141c-.07-.89-.106-1.515-.106-1.872v-3.27h2.338V19h-1.74l-.395-1.274h-.08c-.498.966-1.221 1.45-2.17 1.45zm.755-1.978c.434 0 .75-.196.95-.589.199-.398.307-1.119.325-2.162v-.307c0-1.137-.103-1.937-.308-2.4-.199-.463-.53-.694-.993-.694-.433 0-.75.267-.95.8-.192.527-.29 1.298-.29 2.311 0 1.014.1 1.776.3 2.285.199.504.521.756.966.756zM71.974 19h-2.338V9.209h2.338V19zM69.539 6.651c0-.386.111-.691.334-.914.229-.228.545-.342.95-.342.38 0 .685.114.913.342.229.223.343.528.343.914 0 .399-.117.71-.351.932-.235.217-.537.325-.906.325-.386 0-.697-.108-.931-.325-.235-.223-.352-.533-.352-.932zM78.776 19l-.465-1.336h-.053c-.346.574-.703.97-1.072 1.187-.37.216-.835.325-1.398.325-.72 0-1.289-.27-1.705-.809-.41-.539-.615-1.289-.615-2.25 0-1.031.281-1.796.843-2.294.569-.504 1.416-.782 2.54-.835l1.301-.053v-.703c0-.914-.395-1.37-1.186-1.37-.586 0-1.26.228-2.022.685l-.808-1.617a5.823 5.823 0 013.173-.923c1.037 0 1.825.299 2.364.896.545.592.817 1.433.817 2.523V19h-1.714zm-2.03-1.652c.428 0 .768-.19 1.02-.572.257-.386.386-.899.386-1.538v-.826l-.72.035c-.534.03-.926.182-1.178.457-.246.276-.37.686-.37 1.23 0 .81.288 1.214.862 1.214z" fill="#fff"/><defs><radialGradient id="paint0_radial" cx="0" cy="0" r="1" gradientUnits="userSpaceOnUse" gradientTransform="rotate(75.964 2.153 4.286) scale(21.4836)"><stop stop-color="#255E93"/><stop offset=".474" stop-color="#255E93" stop-opacity=".68"/><stop offset="1" stop-color="#255E93"/></radialGradient><filter id="filter0_d" x="0" y="6" width="24" height="14" filterUnits="userSpaceOnUse" color-interpolation-filters="sRGB"><feFlood flood-opacity="0" result="BackgroundImageFix"/><feColorMatrix in="SourceAlpha" values="0 0 0 0 0 0 0 0 0 0 0 0 0 0 0 0 0 0 127 0"/><feOffset dx="1" dy="2"/><feGaussianBlur stdDeviation="1"/><feColorMatrix values="0 0 0 0 0 0 0 0 0 0 0 0 0 0 0 0 0 0 0.25 0"/><feBlend in2="BackgroundImageFix" result="effect1_dropShadow"/><feBlend in="SourceGraphic" in2="effect1_dropShadow" result="shape"/></filter></defs></svg>